Coordinates
version=1
nRows=10
nColumns=40
inDegrees=yes

Units are S.I. units (second, meters, Newtons, ...)
Angles are in degrees.

endheader
time	pelvis_tilt	pelvis_list	pelvis_rotation	pelvis_tx	pelvis_ty	pelvis_tz	hip_flexion_r	hip_adduction_r	hip_rotation_r	knee_angle_r	knee_angle_r_beta	ankle_angle_r	subtalar_angle_r	mtp_angle_r	hip_flexion_l	hip_adduction_l	hip_rotation_l	knee_angle_l	knee_angle_l_beta	ankle_angle_l	subtalar_angle_l	mtp_angle_l	lumbar_extension	lumbar_bending	lumbar_rotation	arm_flex_r	arm_add_r	arm_rot_r	elbow_flex_r	pro_sup_r	wrist_flex_r	wrist_dev_r	arm_flex_l	arm_add_l	arm_rot_l	elbow_flex_l	pro_sup_l	wrist_flex_l	wrist_dev_l
     45.47000000	     -2.87351235	     -4.67644441	      4.22546543	      1.06051915	      0.93151978	      0.47895200	     11.06270541	      2.42515915	    -14.39343055	     16.35680971	     16.35680971	      9.89336499	     -2.07592743	     -4.59131477	     28.90391508	    -12.50487660	      1.99607750	     60.62659249	     60.62659249	      8.73035200	    -17.48397269	      9.64971122	     -9.68804338	      6.13567884	      2.22074198	     21.58375997	    -18.08330581	      0.06386289	     55.46893014	     45.65309629	      0.00000000	      0.00000000	      4.63639829	     -9.64941169	     -2.70181289	     31.09481419	     45.33454150	      0.00000000	      0.00000000
     45.48328571	     -3.15933265	     -4.51977575	      4.69695383	      1.05872984	      0.93182201	      0.47935775	     10.78666414	      2.33032293	    -14.70432634	     15.80954536	     15.80954536	      9.93429831	     -2.05705426	     -4.68594508	     30.18348098	    -12.28937355	      1.75449218	     58.02095712	     58.02095712	      8.98458461	    -17.90441803	      9.76630484	     -9.59938069	      5.85748327	      1.90359175	     23.86429110	    -18.00600299	     -0.13399452	     57.27255892	     45.60675200	      0.00000000	      0.00000000	      3.60744297	     -9.45009330	     -2.53651823	     29.76961232	     45.30642220	      0.00000000	      0.00000000
     45.49657143	     -3.39177831	     -4.41866010	      5.16961747	      1.05704560	      0.93214910	      0.47971773	     10.35365399	      2.33697250	    -15.00470345	     15.06241332	     15.06241332	      9.88818209	     -2.03912415	     -4.81722787	     31.17995083	    -12.07595917	      1.49431066	     55.07287808	     55.07287808	      9.23516631	    -18.17229525	      9.84377229	     -9.59856859	      5.65015098	      1.61652518	     25.92905085	    -18.06325438	     -0.34329848	     59.78270933	     45.53530089	      0.00000000	      0.00000000	      2.50223735	     -9.25591457	     -2.41272334	     28.66390275	     45.28506698	      0.00000000	      0.00000000
     45.50985714	     -3.70899768	     -4.55832087	      5.63581533	      1.05532438	      0.93197111	      0.48019267	     10.32552306	      2.52704261	    -15.32900617	     14.87460637	     14.87460637	     10.04161061	     -2.19780784	     -4.88536100	     32.20292573	    -12.09342130	      1.29563058	     51.99652499	     51.99652499	      9.69469011	    -17.81695245	     10.06749562	     -9.35558434	      5.68658514	      2.16614389	     27.72989098	    -18.65312712	     -0.63606657	     60.70618147	     45.52342597	      0.00000000	      0.00000000	      1.66534051	     -9.02514660	     -2.38154569	     28.33263512	     45.26825899	      0.00000000	      0.00000000
     45.52314286	     -3.89931747	     -4.23947045	      6.05458880	      1.05368460	      0.93239471	      0.48021134	      9.63490614	      2.34026217	    -15.55678553	     13.70372668	     13.70372668	      9.56701731	     -2.11918349	     -5.90898843	     32.63462373	    -11.43298665	      1.00593795	     48.40411061	     48.40411061	      9.45264115	    -18.18151268	      9.86242767	     -9.71056314	      5.27979044	      2.19836095	     28.35928937	    -19.38265029	     -1.22444012	     67.70948080	     45.30807703	      0.00000000	      0.00000000	      0.86005450	     -8.72242989	     -2.17803273	     27.16519310	     45.27492224	      0.00000000	      0.00000000
     45.53642857	     -4.15221947	     -4.14959365	      6.48850673	      1.05202378	      0.93238154	      0.48021242	      9.32958712	      2.32148379	    -15.79017421	     13.12269739	     13.12269739	      9.45397649	     -2.26564179	     -6.31933704	     33.11446403	    -10.93260632	      0.93401606	     44.81203613	     44.81203613	      9.46693072	    -18.02830477	      9.85197818	     -9.72699525	      5.10262630	      2.39724512	     29.80318369	    -19.58915877	     -2.34893638	     70.77518850	     45.25857238	      0.00000000	      0.00000000	      0.10995406	     -8.51966550	     -1.75808563	     26.30123481	     45.24218845	      0.00000000	      0.00000000
     45.54971429	     -4.43384599	     -4.04898235	      6.88212098	      1.05037974	      0.93224744	      0.48012337	      9.13277525	      2.25952971	    -15.97309301	     12.71565957	     12.71565957	      9.56423471	     -2.34436729	     -6.35392920	     33.48006250	    -10.33800492	      0.97471664	     41.14448778	     41.14448778	      9.60829784	    -17.62064215	     10.23044107	     -9.69230538	      4.87218091	      2.22702507	     31.78540271	    -19.59048431	     -2.69257494	     72.62316676	     45.21939262	      0.00000000	      0.00000000	     -0.85302204	     -8.43063392	     -1.66326253	     25.81034506	     45.21838916	      0.00000000	      0.00000000
     45.56300000	     -4.69264400	     -3.98285081	      7.28782517	      1.04877057	      0.93197287	      0.47979398	      8.94918488	      2.20454546	    -16.22153828	     12.38319720	     12.38319720	      9.69429550	     -2.39174102	     -6.45617583	     33.76435067	     -9.71941525	      1.13343341	     37.54477166	     37.54477166	      9.69570602	    -16.93881094	     10.46058985	     -9.68343655	      4.75065307	      2.04215580	     33.56759105	    -19.53646835	     -3.03348627	     74.90175295	     45.16542574	      0.00000000	      0.00000000	     -1.81401794	     -8.32786759	     -1.59524956	     25.43399693	     45.19815397	      0.00000000	      0.00000000
     45.57628571	     -4.93714165	     -3.98480395	      7.68917130	      1.04722716	      0.93157511	      0.47935228	      8.80305032	      2.19552500	    -16.51612010	     12.14108661	     12.14108661	      9.81948850	     -2.38994981	     -6.62612580	     33.99072078	     -9.13683655	      1.44188616	     34.07967062	     34.07967062	      9.77324419	    -15.94397674	     10.45697243	     -9.70750405	      4.65911647	      1.89919828	     35.10361022	    -19.53395715	     -3.45505888	     77.70531151	     45.09744329	      0.00000000	      0.00000000	     -2.70130316	     -8.19753507	     -1.54186896	     25.22305952	     45.18276916	      0.00000000	      0.00000000
     45.58957143	     -5.28859565	     -4.19709358	      8.08497158	      1.04564282	      0.93076740	      0.47880502	      8.87792525	      2.37407861	    -16.82262826	     12.04361215	     12.04361215	      9.98217232	     -2.52696444	     -6.73157687	     34.46942682	     -8.73993539	      1.88403876	     31.03706557	     31.03706557	      9.95814470	    -14.63993425	     10.66473642	     -9.47487309	      4.82143968	      2.07683531	     36.81982391	    -19.93799706	     -3.83251444	     79.01065271	     45.07606329	      0.00000000	      0.00000000	     -3.34718668	     -8.00751383	     -1.51959687	     25.03898353	     45.16997798	      0.00000000	      0.00000000
